<svg xmlns="http://www.w3.org/2000/svg" xmlns:xlink="http://www.w3.org/1999/xlink" id="projekt" x="0px" y="0px" viewBox="0 0 80 80" style="enable-background:new 0 0 80 80;" xml:space="preserve">
<style type="text/css">
    .st0{fill:#F87C56;}
    .st1{fill:#FFFFFF;}
</style>
<rect x="5.92" y="1.04" class="st0" width="51.65" height="11"></rect>
<rect x="5.92" y="18.96" class="st0" width="51.65" height="11"></rect>
<rect x="5.92" y="36.87" class="st0" width="31.83" height="11"></rect>
<path class="st1" d="M72.92,19.32L60.68,7.08c-0.59-0.59-1.54-0.59-2.12,0L10.56,55.07c-0.16,0.16-0.27,0.34-0.35,0.55L3.38,74.5  l-2.73,2.73c-0.59,0.59-0.59,1.54,0,2.12c0.29,0.29,0.68,0.44,1.06,0.44s0.77-0.15,1.06-0.44l2.73-2.73l18.85-6.83  c0.02-0.01,0.03-0.02,0.05-0.02c0.03-0.01,0.05-0.03,0.08-0.04c0.06-0.03,0.13-0.05,0.19-0.09c0.09-0.05,0.16-0.12,0.23-0.19  c0.01-0.01,0.02-0.01,0.02-0.02c0,0,0-0.01,0.01-0.01c0.01-0.01,0.01-0.01,0.02-0.01l39.56-39.56l3.9,3.9l-24.4,24.4  c-0.59,0.59-0.59,1.54,0,2.12c0.29,0.29,0.68,0.44,1.06,0.44s0.77-0.15,1.06-0.44l25.46-25.46c0.59-0.59,0.59-1.54,0-2.12  l-4.96-4.96l6.29-6.29C73.5,20.86,73.5,19.91,72.92,19.32z M23.87,66.26l-6.01-6.01l-0.24-0.24c-0.59-0.59-1.54-0.59-2.12,0  c-0.59,0.59-0.59,1.54,0,2.12l0.24,0.24l5.4,5.4L7.17,72.83l5.75-15.87l46.7-46.7l10.12,10.12L23.87,66.26z"></path>
<path class="st1" d="M72.79,15.68c-0.38,0-0.77-0.15-1.06-0.44c-0.59-0.59-0.59-1.54,0-2.12l4.44-4.44l-4.86-4.86l-4.44,4.44  c-0.59,0.59-1.54,0.59-2.12,0c-0.59-0.59-0.59-1.54,0-2.12l5.5-5.5c0.59-0.59,1.54-0.59,2.12,0l6.98,6.98  c0.59,0.59,0.59,1.54,0,2.12l-5.5,5.5C73.56,15.54,73.18,15.68,72.79,15.68z"></path>
</svg>