<svg xmlns="http://www.w3.org/2000/svg" xmlns:xlink="http://www.w3.org/1999/xlink" id="projekt" x="0px" y="0px" viewBox="0 0 80 80" style="enable-background:new 0 0 80 80;" xml:space="preserve">
<style type="text/css">
    .st0{fill:#F87C56;}
    .st1{fill:#FFFFFF;}
</style>
<path class="st0" d="M40,62.35V80c22.09,0,40-17.91,40-40H62.35C62.35,52.34,52.34,62.35,40,62.35z"></path>
<path class="st0" d="M40,17.65V0C17.91,0,0,17.91,0,40h17.65C17.65,27.66,27.66,17.65,40,17.65z"></path>
<path class="st1" d="M64.78,28.71c-0.01-0.12-0.04-0.24-0.08-0.36c-0.03-0.07-0.06-0.14-0.1-0.21c-0.01-0.01-0.01-0.03-0.02-0.04  L53.12,8.91c-0.01-0.02-0.03-0.03-0.04-0.05c-0.05-0.08-0.12-0.15-0.19-0.22c-0.05-0.05-0.09-0.1-0.14-0.14  c-0.07-0.05-0.14-0.09-0.22-0.13c-0.07-0.04-0.14-0.07-0.21-0.1c-0.03-0.01-0.05-0.03-0.08-0.04c-0.05-0.01-0.11-0.01-0.16-0.02  c-0.08-0.01-0.16-0.03-0.24-0.03c-0.09,0-0.17,0.01-0.26,0.03c-0.05,0.01-0.1,0-0.15,0.02c-0.03,0.01-0.05,0.03-0.07,0.03  c-0.08,0.03-0.15,0.06-0.22,0.1c-0.07,0.04-0.15,0.08-0.21,0.13c-0.05,0.04-0.1,0.09-0.15,0.14c-0.07,0.07-0.13,0.14-0.18,0.22  c-0.01,0.02-0.03,0.03-0.04,0.05L39.08,28.1c-0.01,0.01-0.01,0.03-0.02,0.04c-0.04,0.07-0.07,0.14-0.1,0.21  c-0.04,0.12-0.07,0.23-0.08,0.36c0,0.03,0,0.07,0,0.1c-0.01,0.15,0,0.29,0.04,0.44c0.06,0.22,0.17,0.41,0.32,0.58l11.38,15.8  c0.09,0.12,0.2,0.22,0.31,0.31c0.03,0.02,0.05,0.03,0.08,0.05c0.1,0.07,0.2,0.12,0.31,0.16c0.02,0.01,0.04,0.02,0.06,0.03  c0.01,0,0.03,0,0.04,0.01c0.14,0.04,0.27,0.07,0.42,0.07c0,0,0,0,0,0s0,0,0,0c0.14,0,0.28-0.03,0.42-0.07c0.01,0,0.03,0,0.04-0.01  c0.02-0.01,0.04-0.02,0.06-0.03c0.11-0.04,0.21-0.09,0.31-0.16c0.03-0.02,0.05-0.03,0.08-0.05c0.12-0.09,0.22-0.19,0.31-0.31  l11.38-15.8c0.14-0.17,0.26-0.36,0.32-0.58c0.04-0.14,0.05-0.29,0.04-0.44C64.79,28.77,64.79,28.74,64.78,28.71z M50.33,21.78  l0,11.08l-7.88-4.55l7.88-13.19L50.33,21.78z M53.33,21.78l0-6.66l7.88,13.19l-7.88,4.55L53.33,21.78z M45.7,33.68l4.63,2.67v3.75  L45.7,33.68z M53.33,36.35l4.63-2.67l-4.63,6.43V36.35z"></path>
<path class="st1" d="M33.62,50.17c0.01-0.01,0.02-0.02,0.03-0.03c1.45-1.45,2.25-3.38,2.25-5.44c0-4.24-3.45-7.69-7.69-7.69h0  l-2.63,0l0-3.66c0-0.83-0.67-1.5-1.5-1.5h0c-0.83,0-1.5,0.67-1.5,1.5l0,3.66l-3.19,0l0-3.66c0-0.83-0.67-1.5-1.5-1.5  c-0.83,0-1.5,0.67-1.5,1.5l0,3.66l-4.69,0c-0.83,0-1.5,0.67-1.5,1.5c0,0.83,0.67,1.5,1.5,1.5l4.69,0l0.01,21.76l-4.69,0  c-0.83,0-1.5,0.67-1.5,1.5c0,0.83,0.67,1.5,1.5,1.5l4.69,0l0,3.66c0,0.83,0.67,1.5,1.5,1.5c0.83,0,1.5-0.67,1.5-1.5l0-3.66l3.19,0  l0,3.66c0,0.83,0.67,1.5,1.5,1.5h0c0.83,0,1.5-0.67,1.5-1.5l0-3.66l4.69,0c4.24,0,7.69-3.45,7.69-7.69  C37.97,54.04,36.19,51.41,33.62,50.17z M30.28,61.77l-6.19,0c0,0,0,0,0,0h0c0,0,0,0,0,0l-4.69,0L19.4,40.01l8.82,0h0  c2.58,0,4.69,2.1,4.69,4.69c0,1.25-0.49,2.43-1.37,3.32c-0.88,0.89-2.06,1.37-3.32,1.37l-4.13,0c-0.83,0-1.5,0.67-1.5,1.5  c0,0.83,0.67,1.5,1.5,1.5l4.13,0c0.49,0,0.97-0.05,1.44-0.14c0.19,0.09,0.4,0.14,0.62,0.14h0c2.58,0,4.69,2.1,4.69,4.69  C34.97,59.67,32.87,61.77,30.28,61.77z"></path>
</svg>