<svg xmlns="http://www.w3.org/2000/svg" xmlns:xlink="http://www.w3.org/1999/xlink" id="projekt" x="0px" y="0px" viewBox="0 0 80 80" style="enable-background:new 0 0 80 80;" xml:space="preserve">
<style type="text/css">
    .st0{fill:#F87C56;}
    .st1{fill:#FFFFFF;}
</style>
<polygon class="st0" points="35.01,1.53 64.32,1.53 78.5,15.71 78.5,63.03 35.01,63.03 "></polygon>
<path class="st1" d="M71.94,33.78H41.57c-0.83,0-1.5-0.67-1.5-1.5s0.67-1.5,1.5-1.5h30.37c0.83,0,1.5,0.67,1.5,1.5  S72.77,33.78,71.94,33.78z"></path>
<path class="st1" d="M71.94,26.57H41.57c-0.83,0-1.5-0.67-1.5-1.5s0.67-1.5,1.5-1.5h30.37c0.83,0,1.5,0.67,1.5,1.5  S72.77,26.57,71.94,26.57z"></path>
<path class="st1" d="M57.71,12.16H41.57c-0.83,0-1.5-0.67-1.5-1.5s0.67-1.5,1.5-1.5h16.14c0.83,0,1.5,0.67,1.5,1.5  S58.54,12.16,57.71,12.16z"></path>
<path class="st1" d="M57.71,19.36H41.57c-0.83,0-1.5-0.67-1.5-1.5s0.67-1.5,1.5-1.5h16.14c0.83,0,1.5,0.67,1.5,1.5  S58.54,19.36,57.71,19.36z"></path>
<path class="st1" d="M71.94,40.98H41.57c-0.83,0-1.5-0.67-1.5-1.5s0.67-1.5,1.5-1.5h30.37c0.83,0,1.5,0.67,1.5,1.5  S72.77,40.98,71.94,40.98z"></path>
<path class="st1" d="M71.94,48.19H41.57c-0.83,0-1.5-0.67-1.5-1.5s0.67-1.5,1.5-1.5h30.37c0.83,0,1.5,0.67,1.5,1.5  S72.77,48.19,71.94,48.19z"></path>
<path class="st1" d="M58.71,55.4H41.57c-0.83,0-1.5-0.67-1.5-1.5s0.67-1.5,1.5-1.5h17.14c0.83,0,1.5,0.67,1.5,1.5  S59.54,55.4,58.71,55.4z"></path>
<path class="st1" d="M80,15.71c0-0.02-0.01-0.04-0.01-0.06c0-0.08-0.01-0.17-0.03-0.24c-0.01-0.06-0.03-0.11-0.05-0.17  c-0.01-0.04-0.02-0.08-0.04-0.11c-0.03-0.06-0.06-0.12-0.1-0.18c-0.02-0.03-0.03-0.05-0.05-0.08c-0.04-0.06-0.09-0.11-0.14-0.17  c-0.02-0.02-0.03-0.04-0.05-0.05c-0.02-0.02-0.04-0.05-0.07-0.07L65.38,0.47c-0.43-0.43-1.07-0.56-1.63-0.33  c-0.56,0.23-0.93,0.78-0.93,1.39v14.18c0,0.83,0.67,1.5,1.5,1.5H77v44.32H36.51V3.03h21.2c0.83,0,1.5-0.67,1.5-1.5  s-0.67-1.5-1.5-1.5h-22.7c-0.83,0-1.5,0.67-1.5,1.5v61.5c0,0.83,0.67,1.5,1.5,1.5H78.5c0.83,0,1.5-0.67,1.5-1.5V15.71  C80,15.71,80,15.71,80,15.71C80,15.71,80,15.71,80,15.71L80,15.71z M65.82,14.21V5.15l9.05,9.05H65.82z"></path>
<path class="st1" d="M61.3,72.25H18.68c-0.83,0-1.5-0.67-1.5-1.5V9.25c0-0.83,0.67-1.5,1.5-1.5h8.44c0.83,0,1.5,0.67,1.5,1.5  s-0.67,1.5-1.5,1.5h-6.94v58.5H61.3c0.83,0,1.5,0.67,1.5,1.5S62.13,72.25,61.3,72.25z"></path>
<path class="st1" d="M44.17,79.96H1.55c-0.83,0-1.5-0.67-1.5-1.5v-61.5c0-0.83,0.67-1.5,1.5-1.5h8.44c0.83,0,1.5,0.67,1.5,1.5  s-0.67,1.5-1.5,1.5H3.05v58.5h41.12c0.83,0,1.5,0.67,1.5,1.5S45,79.96,44.17,79.96z"></path>
</svg>